<svg width="24" height="24" viewBox="0 0 24 24" fill="none" xmlns="http://www.w3.org/2000/svg">
  <path
    d="M5.15186 12C5.15186 11.7952 5.2238 11.6209 5.36768 11.4771C5.51709 11.3276 5.69141 11.2529 5.89062 11.2529H11.2612V5.89062C11.2612 5.69141 11.3332 5.51986 11.4771 5.37598C11.6209 5.22656 11.7952 5.15186 12 5.15186C12.2048 5.15186 12.3791 5.22656 12.5229 5.37598C12.6724 5.51986 12.7471 5.69141 12.7471 5.89062V11.2529H18.1094C18.3086 11.2529 18.4801 11.3276 18.624 11.4771C18.7734 11.6209 18.8481 11.7952 18.8481 12C18.8481 12.2048 18.7734 12.3791 18.624 12.5229C18.4801 12.6668 18.3086 12.7388 18.1094 12.7388H12.7471V18.1094C12.7471 18.3086 12.6724 18.4801 12.5229 18.624C12.3791 18.7734 12.2048 18.8481 12 18.8481C11.7952 18.8481 11.6209 18.7734 11.4771 18.624C11.3332 18.4801 11.2612 18.3086 11.2612 18.1094V12.7388H5.89062C5.69141 12.7388 5.51709 12.6668 5.36768 12.5229C5.2238 12.3791 5.15186 12.2048 5.15186 12Z"
    fill="currentColor" />
</svg>