<svg width="24" height="24" viewBox="0 0 24 24" fill="none" xmlns="http://www.w3.org/2000/svg">
  <path fill-rule="evenodd" clip-rule="evenodd"
    d="M3 13.7344V13H4.53906V13.6797C4.53906 14.4036 4.71875 14.9505 5.07812 15.3203C5.43229 15.6849 5.97917 15.8672 6.71875 15.8672H11.5781C11.8177 15.8672 12.0104 15.8958 12.1562 15.9531C12.2969 16.0052 12.4505 16.1146 12.6172 16.2812L15.0938 18.7344V16.5078C15.0938 16.2734 15.1458 16.1094 15.25 16.0156C15.349 15.9167 15.5078 15.8672 15.7266 15.8672H16.7969C17.5312 15.8672 18.0781 15.6849 18.4375 15.3203C18.7917 14.9505 18.9688 14.4036 18.9688 13.6797V7.71875C18.9688 7 18.7917 6.45833 18.4375 6.09375C18.0781 5.72396 17.5312 5.53906 16.7969 5.53906H14.75V4H16.8359C17.6224 4 18.2891 4.14583 18.8359 4.4375C19.3776 4.72917 19.7917 5.14844 20.0781 5.69531C20.3646 6.23698 20.5078 6.89583 20.5078 7.67188V13.7344C20.5078 14.5104 20.3646 15.1719 20.0781 15.7188C19.7865 16.2604 19.3724 16.6771 18.8359 16.9688C18.2943 17.2604 17.6458 17.4062 16.8906 17.4062H16.4688V19.3281C16.4688 19.6771 16.3828 19.9531 16.2109 20.1562C16.0339 20.3594 15.7891 20.4609 15.4766 20.4609C15.2578 20.4609 15.0521 20.4036 14.8594 20.2891C14.6667 20.1797 14.4375 20.0078 14.1719 19.7734L11.5 17.4062H6.67188C5.89062 17.4062 5.22656 17.2604 4.67969 16.9688C4.13281 16.6771 3.71615 16.2604 3.42969 15.7188C3.14323 15.1719 3 14.5104 3 13.7344ZM10.75 4H12.35V11H10.75V4ZM5.8498 4.2002C4.30341 4.2002 3.0498 5.4538 3.0498 7.0002V11.0002H4.6498V9.3002H7.5498V11.0002H9.14981V7.0002C9.14981 5.4538 7.8962 4.2002 6.3498 4.2002H5.8498ZM7.5498 7.7002V7.0002C7.5498 6.33745 7.01255 5.8002 6.3498 5.8002H5.8498C5.18706 5.8002 4.6498 6.33745 4.6498 7.0002V7.7002H7.5498Z"
    fill="currentColor" />
</svg>