<svg width="24" height="24" viewBox="0 0 24 24" fill="none" xmlns="http://www.w3.org/2000/svg">
  <path
    d="M12.148 20.297a7.862 7.862 0 0 1-3.164-.64 8.291 8.291 0 0 1-2.601-1.75 8.198 8.198 0 0 1-1.75-2.595A7.947 7.947 0 0 1 4 12.149c0-1.125.21-2.18.633-3.164a8.227 8.227 0 0 1 4.352-4.352A7.946 7.946 0 0 1 12.147 4c1.125 0 2.18.21 3.165.633a8.134 8.134 0 0 1 2.593 1.758 8.198 8.198 0 0 1 1.75 2.593c.427.985.64 2.04.64 3.164 0 1.125-.213 2.18-.64 3.165a8.196 8.196 0 0 1-4.343 4.343c-.985.427-2.04.64-3.165.64zm0-1.79a6.283 6.283 0 0 0 4.492-1.86 6.49 6.49 0 0 0 1.368-2.03c.333-.77.5-1.594.5-2.469 0-.88-.167-1.703-.5-2.468a6.373 6.373 0 0 0-1.367-2.032 6.284 6.284 0 0 0-4.493-1.859c-.88 0-1.705.164-2.476.492a6.399 6.399 0 0 0-3.39 3.399 6.2 6.2 0 0 0-.493 2.468c0 .875.164 1.698.492 2.47a6.398 6.398 0 0 0 3.39 3.398c.772.328 1.597.492 2.477.492zm-.843-2.648a.855.855 0 0 1-.414-.101 1.276 1.276 0 0 1-.344-.297l-1.805-2.188c-.146-.182-.219-.367-.219-.554 0-.209.073-.386.22-.531a.714.714 0 0 1 .523-.22.71.71 0 0 1 .336.079c.099.052.197.138.296.258l1.391 1.75L14.25 9.28c.177-.281.398-.422.664-.422.198 0 .375.065.531.196.157.13.235.3.235.508a.67.67 0 0 1-.063.273 1.515 1.515 0 0 1-.14.273l-3.43 5.344c-.182.271-.43.406-.742.406z"
    fill="currentColor" />
</svg>