<svg width="24" height="24" viewBox="0 0 24 24" fill="none" xmlns="http://www.w3.org/2000/svg">
  <path
    d="M20.0967 12.3593C20.0967 13.3645 19.9274 14.3124 19.5889 15.203C19.2503 16.0937 18.7764 16.8983 18.167 17.6171C17.5628 18.3306 16.8519 18.9244 16.0342 19.3983C15.2217 19.8775 14.3389 20.203 13.3857 20.3749V21.3202C13.3857 21.5181 13.3389 21.6666 13.2451 21.7655C13.1566 21.8645 13.042 21.9114 12.9014 21.9062C12.7607 21.9062 12.6149 21.8515 12.4639 21.7421L9.91699 19.8827C9.74512 19.7577 9.65918 19.6067 9.65918 19.4296C9.66439 19.2577 9.75033 19.1093 9.91699 18.9843L12.4717 17.1249C12.6175 17.0207 12.7607 16.966 12.9014 16.9608C13.042 16.9556 13.1566 17.0051 13.2451 17.1093C13.3389 17.2082 13.3857 17.3541 13.3857 17.5468V18.5312C14.0889 18.3749 14.7399 18.1093 15.3389 17.7343C15.9378 17.3541 16.4587 16.8905 16.9014 16.3437C17.3441 15.7916 17.6878 15.1796 17.9326 14.5077C18.1826 13.8306 18.3076 13.1145 18.3076 12.3593C18.3076 11.5155 18.1488 10.7213 17.8311 9.97646C17.5133 9.23167 17.0785 8.58063 16.5264 8.02334C16.3232 7.77855 16.2321 7.54417 16.2529 7.32021C16.279 7.09626 16.3649 6.91136 16.5107 6.76553C16.6774 6.59886 16.891 6.51032 17.1514 6.4999C17.4118 6.48949 17.641 6.60146 17.8389 6.83584C18.5368 7.53896 19.0863 8.36709 19.4873 9.32021C19.8936 10.2681 20.0967 11.2812 20.0967 12.3593ZM3.7998 12.3593C3.7998 11.3541 3.96908 10.4062 4.30762 9.51553C4.64616 8.61969 5.12012 7.81501 5.72949 7.10146C6.33887 6.38271 7.0498 5.78636 7.8623 5.3124C8.6748 4.83324 9.55762 4.51032 10.5107 4.34365V3.39834C10.5107 3.19521 10.555 3.04417 10.6436 2.94521C10.7373 2.84626 10.8545 2.79938 10.9951 2.80459C11.1357 2.80459 11.279 2.85928 11.4248 2.96865L13.9795 4.83584C14.1514 4.96084 14.2373 5.11188 14.2373 5.28896C14.2373 5.46084 14.1514 5.60928 13.9795 5.73428L11.4248 7.59365C11.279 7.69782 11.1357 7.75251 10.9951 7.75771C10.8545 7.76292 10.7373 7.71605 10.6436 7.61709C10.555 7.51292 10.5107 7.36449 10.5107 7.17178V6.1874C9.80762 6.34365 9.15658 6.61188 8.55762 6.99209C7.95866 7.36709 7.43522 7.83063 6.9873 8.38271C6.5446 8.92959 6.20085 9.54157 5.95605 10.2187C5.71126 10.8905 5.58887 11.6041 5.58887 12.3593C5.58887 13.203 5.74772 13.9973 6.06543 14.7421C6.38314 15.4869 6.81803 16.1353 7.37012 16.6874C7.57324 16.9374 7.66178 17.1744 7.63574 17.3983C7.6097 17.6223 7.52637 17.8046 7.38574 17.9452C7.21908 18.1119 7.00553 18.2004 6.74512 18.2108C6.4847 18.2265 6.25293 18.1171 6.0498 17.8827C5.35189 17.1744 4.80241 16.3463 4.40137 15.3983C4.00033 14.4452 3.7998 13.4322 3.7998 12.3593Z"
    fill="currentColor" />
</svg>