<svg
    viewBox="0 0 24 24"
    fill="none"
    version="1.1"
    id="svg1"
    xmlns="http://www.w3.org/2000/svg"
    xmlns:svg="http://www.w3.org/2000/svg">

    <path
        fill="currentColor"
        d="m 3,2 a 1,1 0 0 0 -0.7070312,0.2929688 1,1 0 0 0 0,1.4140625 L 6.421875,7.8359375 C 3.7890261,8.6864035 2,11.020131 2,13.648438 2,17.148958 4.8825427,20 8.4003906,20 H 16.5 c 0.603655,0 1.13929,-0.219048 1.685547,-0.400391 l 2.107422,2.107422 a 1,1 0 0 0 1.414062,0 1,1 0 0 0 0,-1.414062 L 3.7070313,2.2929688 A 1,1 0 0 0 3,2 Z m 9.689453,2 C 11.95139,4 11.239375,4.1262891 10.576172,4.3554687 A 1,1 0 0 0 9.9570313,5.6269531 1,1 0 0 0 11.228516,6.2460937 C 11.688112,6.0872734 12.177916,6 12.689453,6 c 2.477673,0 4.473176,1.9035485 4.611328,4.306641 a 1.0001,1.0001 0 0 0 0.597656,0.859375 C 19.094175,11.688836 20,13.050483 20,14.496094 c 0,0.221516 -0.01982,0.437827 -0.05859,0.646484 a 1,1 0 0 0 0.800781,1.166016 1,1 0 0 0 1.164063,-0.800781 C 21.967272,15.17947 22,14.840578 22,14.496094 22,12.476021 20.840455,10.737125 19.185547,9.7519531 18.765591,6.5230229 16.041315,4 12.689453,4 Z M 7.890625,9.3046875 16.570312,17.984375 C 16.545108,17.984904 16.525359,18 16.5,18 H 8.4003906 C 5.9535585,18 4,16.058117 4,13.648438 4,11.689193 5.4282505,9.8479795 7.6601562,9.4863281 A 1.0001,1.0001 0 0 0 7.890625,9.3046875 Z"
    />
</svg>