<svg
    viewBox="0 0 24 24"
    fill="currentColor"
    version="1.1"
    id="svg2"
    xmlns="http://www.w3.org/2000/svg"
    xmlns:svg="http://www.w3.org/2000/svg">

    <path
        d="m 19.472656,1.1640625 c -0.44982,0.00947 -0.894876,0.1094418 -1.304687,0.2949219 -0.409924,0.1854726 -0.776127,0.4535327 -1.080078,0.7851562 L 17.109375,2.21875 7.5585937,11.769531 C 6.8612273,12.466898 6.546933,13.495805 6.3828125,14.5 c -0.08206,0.502097 -0.1135749,0.992864 -0.072266,1.447266 0.041309,0.454402 0.112561,0.897717 0.4980468,1.283203 0.3861895,0.386189 0.8305249,0.457876 1.2851563,0.498047 0.4546314,0.04017 0.9472152,0.0073 1.4492188,-0.07617 1.0040072,-0.16687 2.0301232,-0.485202 2.7265622,-1.181641 L 21.785156,6.9550781 C 22.117681,6.6519719 22.385677,6.2842429 22.572266,5.875 22.758696,5.4658203 22.860378,5.0221149 22.871094,4.5722656 22.88181,4.1223759 22.801586,3.6754052 22.634766,3.2578125 22.46785,2.8399944 22.21798,2.4610707 21.900391,2.1425781 21.58274,1.8240241 21.202454,1.5723647 20.785156,1.4042969 20.367832,1.2362182 19.922349,1.1546014 19.472656,1.1640625 Z m 0.03125,1.5 c 0.247107,-0.0052 0.491428,0.038518 0.720703,0.1308594 0.229303,0.092352 0.438732,0.231204 0.613282,0.40625 0.17461,0.1751074 0.310659,0.3837793 0.402343,0.6132812 0.09178,0.2297473 0.136743,0.475646 0.13086,0.7226563 -0.0059,0.2470507 -0.06149,0.4897234 -0.164063,0.7148437 -0.102611,0.2250571 -0.248965,0.4272363 -0.43164,0.59375 A 0.750075,0.750075 0 0 0 20.75,5.8691406 l -9.541016,9.5410154 c -0.253561,0.253561 -1.111101,0.628589 -1.912109,0.761719 -0.4005039,0.06657 -0.7912664,0.08733 -1.0722656,0.0625 -0.2809992,-0.02483 -0.4247051,-0.135643 -0.3535157,-0.06445 0.070486,0.07049 -0.040841,-0.0762 -0.066406,-0.357422 -0.025566,-0.281223 -0.00685,-0.671863 0.058594,-1.072266 0.1308796,-0.800805 0.505179,-1.657522 0.7578126,-1.910156 L 18.169922,3.28125 a 0.750075,0.750075 0 0 0 0.02344,-0.025391 c 0.167049,-0.1822565 0.368474,-0.3277601 0.59375,-0.4296875 0.225189,-0.10192 0.469618,-0.1569034 0.716797,-0.1621094 z"
    />
    <path
        d="M 6,3.25 C 4.74051,3.25 3.531209,3.750041 2.640625,4.640625 1.7500557,5.5312062 1.25,6.740477 1.25,8 v 10 c 0,1.259547 0.5000374,2.468835 1.390625,3.359375 C 3.5312156,22.250025 4.7405194,22.75 6,22.75 h 11 c 1.30862,0 2.362743,-0.60616 2.957031,-1.515625 C 20.55132,20.32491 20.75,19.189773 20.75,18 V 13 A 0.75,0.75 0 0 0 20,12.25 0.75,0.75 0 0 0 19.25,13 v 5 c 0,1.010227 -0.195616,1.873528 -0.548828,2.414062 C 18.34796,20.954597 17.90138,21.25 17,21.25 H 6 C 5.1377406,21.25 4.3108813,20.908578 3.7011719,20.298828 3.0914795,19.689168 2.75,18.862253 2.75,18 V 8 C 2.75,7.137783 3.0914612,6.3108907 3.7011719,5.7011719 4.3108879,5.0914558 5.13775,4.75 6,4.75 h 5 A 0.75,0.75 0 0 0 11.75,4 0.75,0.75 0 0 0 11,3.25 Z"
    />
</svg>