<svg width="24" height="24" viewBox="0 0 24 24" fill="none" xmlns="http://www.w3.org/2000/svg">
  <path
    d="M7.64062 21.0547C6.77604 21.0547 6.11719 20.8307 5.66406 20.3828C5.21615 19.9349 4.99219 19.2839 4.99219 18.4297V10.8203C4.99219 9.96094 5.21615 9.3099 5.66406 8.86719C6.11719 8.41927 6.77604 8.19531 7.64062 8.19531H9.86719V9.92969H7.78125C7.4375 9.92969 7.17448 10.0182 6.99219 10.1953C6.8151 10.3672 6.72656 10.6328 6.72656 10.9922V18.25C6.72656 18.6094 6.8151 18.875 6.99219 19.0469C7.17448 19.224 7.4375 19.3125 7.78125 19.3125H16.5078C16.8464 19.3125 17.1068 19.224 17.2891 19.0469C17.4714 18.875 17.5625 18.6094 17.5625 18.25V10.9922C17.5625 10.6328 17.4714 10.3672 17.2891 10.1953C17.1068 10.0182 16.8464 9.92969 16.5078 9.92969H14.4219V8.19531H16.6562C17.5208 8.19531 18.1771 8.41927 18.625 8.86719C19.0781 9.3099 19.3047 9.96094 19.3047 10.8203V18.4297C19.3047 19.2839 19.0781 19.9349 18.625 20.3828C18.1771 20.8307 17.5208 21.0547 16.6562 21.0547H7.64062ZM12.1406 14.625C11.9219 14.625 11.7344 14.5469 11.5781 14.3906C11.4219 14.2344 11.3438 14.0521 11.3438 13.8438V6.07031L11.4141 4.92188L11.0234 5.44531L9.97656 6.5625C9.83073 6.71354 9.65104 6.78906 9.4375 6.78906C9.25 6.78906 9.08594 6.72656 8.94531 6.60156C8.8099 6.47656 8.74219 6.3151 8.74219 6.11719C8.74219 5.92969 8.8151 5.76042 8.96094 5.60938L11.5234 3.14844C11.6328 3.04427 11.737 2.97396 11.8359 2.9375C11.9349 2.89583 12.0365 2.875 12.1406 2.875C12.25 2.875 12.3542 2.89583 12.4531 2.9375C12.5573 2.97396 12.6615 3.04427 12.7656 3.14844L15.3281 5.60938C15.474 5.76042 15.5469 5.92969 15.5469 6.11719C15.5469 6.3151 15.4766 6.47656 15.3359 6.60156C15.1953 6.72656 15.0312 6.78906 14.8438 6.78906C14.6302 6.78906 14.4531 6.71354 14.3125 6.5625L13.2734 5.44531L12.8828 4.92188L12.9453 6.07031V13.8438C12.9453 14.0521 12.8672 14.2344 12.7109 14.3906C12.5599 14.5469 12.3698 14.625 12.1406 14.625Z"
    fill="currentColor" />
</svg>