<svg
  width="800px"
  height="800px"
  viewBox="0 0 24 24"
  fill="currentColor"
  version="1.1"
  id="svg3"
  xmlns="http://www.w3.org/2000/svg"
  xmlns:svg="http://www.w3.org/2000/svg">
  <path
    d="M 12 1.9999805 C 6.4889971 1.9999805 1.9999805 6.4889971 1.9999805 12 C 1.9999805 17.511003 6.4889971 22.00002 12 22.00002 C 17.511003 22.00002 22.00002 17.511003 22.00002 12 C 22.00002 6.4889971 17.511003 1.9999805 12 1.9999805 z M 9.7852734 4.3109766 C 9.0156782 5.4315159 8.4068848 6.6714576 7.9985742 7.9999805 L 5.0673633 7.9999805 C 6.0900495 6.2262937 7.7728525 4.8864357 9.7852734 4.3109766 z M 14.215605 4.3112109 C 16.22764 4.8868084 17.910099 6.2265506 18.932637 7.9999805 L 16.002187 7.9999805 C 15.593899 6.671553 14.985141 5.4316872 14.215605 4.3112109 z M 12.000352 4.6819336 C 12.802406 5.6669552 13.444958 6.7859498 13.890996 7.9999805 L 10.109766 7.9999805 C 10.555785 6.7859498 11.198306 5.6669552 12.000352 4.6819336 z M 4.2503906 10.00002 L 7.5475781 10.00002 C 7.4512896 10.65291 7.4003906 11.320575 7.4003906 12.000117 C 7.4003906 12.679594 7.451242 13.347144 7.5475195 13.99998 L 4.2503906 13.99998 C 4.0869542 13.361092 4.0000195 12.691034 4.0000195 12 C 4.0000195 11.308966 4.0869542 10.638908 4.2503906 10.00002 z M 9.575625 10.00002 L 14.425137 10.00002 C 14.538123 10.650072 14.600391 11.317601 14.600391 12.000117 C 14.600391 12.682566 14.538164 13.349987 14.425195 13.99998 L 9.5755664 13.99998 C 9.4626035 13.349987 9.4003711 12.682566 9.4003711 12.000117 C 9.4003711 11.317601 9.4626451 10.650072 9.575625 10.00002 z M 16.453184 10.00002 L 19.749609 10.00002 C 19.913046 10.638908 19.99998 11.308966 19.99998 12 C 19.99998 12.691034 19.913046 13.361092 19.749609 13.99998 L 16.453242 13.99998 C 16.54952 13.347143 16.600371 12.679594 16.600371 12.000117 C 16.600371 11.320574 16.549474 10.652911 16.453184 10.00002 z M 5.0673633 16.00002 L 7.9985742 16.00002 C 8.4068805 17.328528 9.0156658 18.568482 9.7852734 19.689023 C 7.7728525 19.113564 6.0900495 17.773706 5.0673633 16.00002 z M 10.109707 16.00002 L 13.891055 16.00002 C 13.445014 17.214108 12.802482 18.333184 12.00041 19.318242 C 11.198313 18.333184 10.555738 17.214108 10.109707 16.00002 z M 16.002187 16.00002 L 18.932637 16.00002 C 17.91011 17.773429 16.227668 19.113122 14.215664 19.68873 C 14.985177 18.568263 15.593915 17.328417 16.002187 16.00002 z " />
</svg>