<svg width="24" height="24" viewBox="0 0 24 24" fill="none" xmlns="http://www.w3.org/2000/svg">
  <path
    d="M8.46484 7.16797C8.27669 7.16797 8.11621 7.10433 7.9834 6.97705C7.85612 6.84977 7.79248 6.69206 7.79248 6.50391C7.79248 6.31576 7.85612 6.15804 7.9834 6.03076C8.11621 5.89795 8.27669 5.83154 8.46484 5.83154H19.8037C19.9919 5.83154 20.1496 5.89795 20.2769 6.03076C20.4097 6.15804 20.4761 6.31576 20.4761 6.50391C20.4761 6.69206 20.4097 6.84977 20.2769 6.97705C20.1496 7.10433 19.9919 7.16797 19.8037 7.16797H8.46484ZM8.46484 12.7734C8.27669 12.7734 8.11621 12.7098 7.9834 12.5825C7.85612 12.4497 7.79248 12.2892 7.79248 12.1011C7.79248 11.9129 7.85612 11.7552 7.9834 11.6279C8.11621 11.5007 8.27669 11.437 8.46484 11.437H19.8037C19.9919 11.437 20.1496 11.5007 20.2769 11.6279C20.4097 11.7552 20.4761 11.9129 20.4761 12.1011C20.4761 12.2892 20.4097 12.4497 20.2769 12.5825C20.1496 12.7098 19.9919 12.7734 19.8037 12.7734H8.46484ZM8.23877 18.1597C8.05062 18.1597 7.89014 18.096 7.75732 17.9688C7.63005 17.8415 7.56641 17.6838 7.56641 17.4956C7.56641 17.3075 7.63005 17.1497 7.75732 17.0225C7.89014 16.8896 8.05062 16.8232 8.23877 16.8232H19.5776C19.7658 16.8232 19.9235 16.8896 20.0508 17.0225C20.1836 17.1497 20.25 17.3075 20.25 17.4956C20.25 17.6838 20.1836 17.8415 20.0508 17.9688C19.9235 18.096 19.7658 18.1597 19.5776 18.1597H8.23877ZM4.7959 7.5415C4.50814 7.5415 4.26188 7.44189 4.05713 7.24268C3.85238 7.03792 3.75 6.79167 3.75 6.50391C3.75 6.21061 3.85238 5.96436 4.05713 5.76514C4.26188 5.56038 4.50814 5.45801 4.7959 5.45801C5.08366 5.45801 5.32992 5.56038 5.53467 5.76514C5.73942 5.96436 5.8418 6.21061 5.8418 6.50391C5.8418 6.79167 5.73942 7.03792 5.53467 7.24268C5.32992 7.44189 5.08366 7.5415 4.7959 7.5415ZM4.7959 13.147C4.50814 13.147 4.26188 13.0446 4.05713 12.8398C3.85238 12.6351 3.75 12.3888 3.75 12.1011C3.75 11.8133 3.85238 11.5671 4.05713 11.3623C4.26188 11.1576 4.50814 11.0552 4.7959 11.0552C5.08366 11.0552 5.32992 11.1576 5.53467 11.3623C5.73942 11.5671 5.8418 11.8133 5.8418 12.1011C5.8418 12.3888 5.73942 12.6351 5.53467 12.8398C5.32992 13.0446 5.08366 13.147 4.7959 13.147ZM4.56982 18.5415C4.28206 18.5415 4.03581 18.4391 3.83105 18.2344C3.6263 18.0296 3.52393 17.7834 3.52393 17.4956C3.52393 17.2023 3.6263 16.9561 3.83105 16.7568C4.03581 16.5521 4.28206 16.4497 4.56982 16.4497C4.85758 16.4497 5.10384 16.5521 5.30859 16.7568C5.51335 16.9561 5.61572 17.2023 5.61572 17.4956C5.61572 17.7834 5.51335 18.0296 5.30859 18.2344C5.10384 18.4391 4.85758 18.5415 4.56982 18.5415Z"
    fill="currentColor" />
</svg>