<svg width="24" height="25" viewBox="0 0 24 25" fill="none" xmlns="http://www.w3.org/2000/svg">
  <path
    d="M8.66368 19.9984C8.39536 19.9984 8.16985 19.9099 7.98715 19.7329C7.81016 19.5616 7.72168 19.3447 7.72168 19.0821V6.49347C7.72168 6.23085 7.81016 6.01389 7.98715 5.84262C8.16985 5.66563 8.39536 5.57715 8.66368 5.57715C8.93201 5.57715 9.15467 5.66563 9.33166 5.84262C9.51434 6.01389 9.60569 6.23085 9.60569 6.49347V19.0821C9.60569 19.3447 9.51434 19.5616 9.33166 19.7329C9.15467 19.9099 8.93201 19.9984 8.66368 19.9984ZM14.6155 19.9984C14.3528 19.9984 14.1302 19.9099 13.9475 19.7329C13.7705 19.5616 13.682 19.3447 13.682 19.0821V6.49347C13.682 6.23085 13.7705 6.01389 13.9475 5.84262C14.1302 5.66563 14.3528 5.57715 14.6155 5.57715C14.8838 5.57715 15.1093 5.66563 15.292 5.84262C15.4747 6.01389 15.566 6.23085 15.566 6.49347V19.0821C15.566 19.3447 15.4747 19.5616 15.292 19.7329C15.1093 19.9099 14.8838 19.9984 14.6155 19.9984Z"
    fill="currentColor" />
</svg>