<svg width="24" height="25" viewBox="0 0 24 25" fill="none" xmlns="http://www.w3.org/2000/svg">
  <path
    d="M12.0731 20.9542C10.9156 20.9542 9.83119 20.7352 8.81979 20.2971C7.80837 19.8645 6.91864 19.264 6.15061 18.496C5.38258 17.7334 4.77952 16.8463 4.34142 15.835C3.90873 14.8182 3.69238 13.731 3.69238 12.5736C3.69238 11.4161 3.90873 10.3317 4.34142 9.32028C4.77952 8.30344 5.38258 7.41102 6.15061 6.64299C6.91864 5.87496 7.80837 5.2746 8.81979 4.84191C9.83119 4.40922 10.9156 4.19287 12.0731 4.19287C13.2305 4.19287 14.315 4.40922 15.3263 4.84191C16.3432 5.2746 17.2357 5.87496 18.0037 6.64299C18.7717 7.41102 19.3721 8.30344 19.8047 9.32028C20.2429 10.3317 20.4619 11.4161 20.4619 12.5736C20.4619 13.731 20.2429 14.8182 19.8047 15.835C19.3721 16.8463 18.7717 17.7334 18.0037 18.496C17.2357 19.264 16.3432 19.8645 15.3263 20.2971C14.315 20.7352 13.2305 20.9542 12.0731 20.9542ZM12.0731 19.2993C13.0034 19.2993 13.8742 19.1235 14.6855 18.7719C15.4967 18.4257 16.2107 17.9443 16.8272 17.3278C17.4493 16.7112 17.9333 15.9972 18.2795 15.186C18.6257 14.3747 18.7987 13.5039 18.7987 12.5736C18.7987 11.6433 18.6257 10.7725 18.2795 9.9612C17.9333 9.14449 17.4493 8.43055 16.8272 7.81938C16.2107 7.20279 15.4967 6.72142 14.6855 6.37527C13.8742 6.0237 13.0034 5.84791 12.0731 5.84791C11.1482 5.84791 10.2774 6.0237 9.46071 6.37527C8.6494 6.72142 7.93546 7.20279 7.31887 7.81938C6.7023 8.43055 6.21822 9.14449 5.86666 9.9612C5.52051 10.7725 5.34742 11.6433 5.34742 12.5736C5.34742 13.5039 5.52051 14.3747 5.86666 15.186C6.21822 15.9972 6.7023 16.7112 7.31887 17.3278C7.93546 17.9443 8.6494 18.4257 9.46071 18.7719C10.2774 19.1235 11.1482 19.2993 12.0731 19.2993ZM8.36545 11.673L13.1521 8.81727C13.3685 8.68746 13.5983 8.63067 13.8417 8.6469C14.0851 8.65771 14.2906 8.74425 14.4583 8.90652C14.6314 9.06877 14.7179 9.30946 14.7179 9.62857V15.5104C14.7179 15.8242 14.6314 16.0621 14.4583 16.2244C14.2906 16.3867 14.0851 16.476 13.8417 16.4922C13.5983 16.503 13.3685 16.4407 13.1521 16.3056L8.35734 13.4741C8.13559 13.3443 7.98414 13.1631 7.90302 12.9306C7.8273 12.698 7.8273 12.4654 7.90302 12.2328C7.97874 11.9949 8.13288 11.8083 8.36545 11.673ZM9.85824 12.4924C9.82579 12.5087 9.80956 12.5357 9.80956 12.5736C9.80956 12.6114 9.82849 12.6412 9.86635 12.6628L13.0953 14.5613C13.1386 14.5883 13.1737 14.5964 13.2008 14.5856C13.2332 14.5694 13.2495 14.5423 13.2495 14.5045V10.6346C13.2495 10.5913 13.2332 10.5643 13.2008 10.5534C13.1737 10.5426 13.1386 10.548 13.0953 10.5697L9.85824 12.4924Z"
    fill="currentColor" />
</svg>