<svg width="24" height="25" viewBox="0 0 24 25" fill="none" xmlns="http://www.w3.org/2000/svg">
  <path
    d="M18.887 13.3433C18.887 14.2423 18.7188 15.0837 18.3822 15.8673C18.0456 16.6509 17.5794 17.3409 16.9831 17.937C16.3918 18.5331 15.7044 18.9995 14.9207 19.3361C14.137 19.6727 13.2957 19.8408 12.3966 19.8408C11.5024 19.8408 10.6611 19.6727 9.87259 19.3361C9.08893 18.9995 8.39904 18.5331 7.80288 17.937C7.21154 17.3409 6.7476 16.6509 6.41106 15.8673C6.07452 15.0837 5.90625 14.2423 5.90625 13.3433C5.90625 13.0981 5.98317 12.8986 6.13703 12.7448C6.29087 12.5909 6.48558 12.514 6.72116 12.514C6.95673 12.514 7.14663 12.5909 7.29087 12.7448C7.43509 12.8986 7.50721 13.0981 7.50721 13.3433C7.50721 14.0164 7.63221 14.6486 7.88221 15.2399C8.13702 15.8313 8.48797 16.3505 8.93509 16.7976C9.38701 17.2448 9.90865 17.5956 10.5 17.8505C11.0913 18.1053 11.7235 18.2327 12.3966 18.2327C13.0745 18.2327 13.7067 18.1053 14.2933 17.8505C14.8846 17.5956 15.4038 17.2448 15.8509 16.7976C16.3029 16.3505 16.6539 15.8313 16.9038 15.2399C17.1587 14.6486 17.286 14.0164 17.286 13.3433C17.286 12.6702 17.1587 12.038 16.9038 11.4467C16.6539 10.8553 16.3029 10.3361 15.8509 9.88898C15.4038 9.43706 14.8846 9.08609 14.2933 8.8361C13.7067 8.58129 13.0745 8.45388 12.3966 8.45388C12.1995 8.45388 12.0096 8.4611 11.8269 8.47551C11.649 8.48994 11.4832 8.51397 11.3293 8.54763L13.125 10.3217C13.1971 10.3938 13.2524 10.4731 13.2909 10.5597C13.3293 10.6462 13.3486 10.7447 13.3486 10.8553C13.3486 11.0717 13.2716 11.2568 13.1178 11.4106C12.9687 11.5596 12.7861 11.6342 12.5697 11.6342C12.3534 11.6342 12.1707 11.562 12.0216 11.4178L9.06491 8.43225C8.98317 8.35052 8.92068 8.26157 8.87741 8.16542C8.83895 8.06445 8.81971 7.95869 8.81971 7.84811C8.81971 7.63176 8.90144 7.43705 9.06491 7.26398L12.0216 4.26398C12.1659 4.11014 12.3486 4.0332 12.5697 4.0332C12.7909 4.0332 12.976 4.11014 13.125 4.26398C13.274 4.41782 13.3486 4.60532 13.3486 4.82648C13.3486 4.93224 13.3293 5.03081 13.2909 5.12216C13.2524 5.20869 13.1995 5.28801 13.1322 5.36013L11.5168 6.93945C11.6514 6.91542 11.7909 6.89619 11.9351 6.88176C12.0841 6.86253 12.238 6.85292 12.3966 6.85292C13.2957 6.85292 14.137 7.02119 14.9207 7.35773C15.7044 7.69427 16.3918 8.16062 16.9831 8.75676C17.5794 9.35292 18.0456 10.0428 18.3822 10.8265C18.7188 11.6101 18.887 12.4491 18.887 13.3433Z"
    fill="currentColor" />
</svg>