<?xml version="1.0" encoding="UTF-8" standalone="no"?>
<svg
   viewBox="0 0 64 64"
   width="256"
   height="256"
   version="1.1"
   id="svg10"
   sodipodi:docname="ReverseProxy.svg"
   inkscape:version="1.4 (e7c3feb1, 2024-10-09)"
   xmlns:inkscape="http://www.inkscape.org/namespaces/inkscape"
   xmlns:sodipodi="http://sodipodi.sourceforge.net/DTD/sodipodi-0.dtd"
   xmlns="http://www.w3.org/2000/svg"
   xmlns:svg="http://www.w3.org/2000/svg">
   <sodipodi:namedview
      id="namedview1"
      pagecolor="#ffffff"
      bordercolor="#000000"
      borderopacity="0.25"
      inkscape:showpageshadow="2"
      inkscape:pageopacity="0.0"
      inkscape:pagecheckerboard="0"
      inkscape:deskcolor="#d1d1d1"
      inkscape:zoom="1.9707031"
      inkscape:cx="135.48464"
      inkscape:cy="25.117939"
      inkscape:window-width="1200"
      inkscape:window-height="1186"
      inkscape:window-x="0"
      inkscape:window-y="25"
      inkscape:window-maximized="0"
      inkscape:current-layer="svg10" />
   <defs
      id="defs2">
      <linearGradient
         id="proxyGrad"
         x1="0%"
         y1="0%"
         x2="100%"
         y2="100%">
         <stop
            offset="0%"
            stop-color="#818CF8"
            id="stop1" />
         <stop
            offset="100%"
            stop-color="#4F46E5"
            id="stop2" />
      </linearGradient>
   </defs>
   <path
      d="M 7.8675761,29.707947 25.915821,30.035441"
      id="path11" />
   <path
      d="m 7.455241,25.994436 a 6.3311455,6.0058279 0 0 0 -6.3313158,6.005137 6.3311455,6.0058279 0 0 0 6.3313158,6.005991 6.3311455,6.0058279 0 0 0 6.330418,-6.005991 6.3311455,6.0058279 0 0 0 -6.330418,-6.005137 z m 0,3.753424 A 2.3741795,2.2521854 0 0 1 9.8289239,31.999573 2.3741795,2.2521854 0 0 1 7.455241,34.25214 2.3741795,2.2521854 0 0 1 5.0806608,31.999573 2.3741795,2.2521854 0 0 1 7.455241,29.74786 Z" />
   <path
      d="m 17.087406,30.438367 c -0.868245,-0.01429 -1.584609,0.641244 -1.60076,1.464857 -0.01654,0.824535 0.675001,1.505525 1.544206,1.52084 l 3.776905,0.0653 c 0.869188,0.0143 1.585948,-0.642659 1.60076,-1.467191 0.01506,-0.823629 -0.67598,-1.503181 -1.544204,-1.518505 z m 7.553813,0.130621 c -0.869198,-0.01569 -1.587073,0.640317 -1.603217,1.464857 -0.01636,0.825429 0.676491,1.506797 1.54666,1.520839 l 0.452443,0.0069 c 0.869197,0.01569 1.587074,-0.640318 1.603218,-1.464858 0.01654,-0.824534 -0.675002,-1.505524 -1.544205,-1.520838 z" />
   <path
      d="m 36.115528,24.711369 c 0.624046,-0.603836 0.66706,-1.573916 0.0961,-2.167719 -0.571339,-0.594729 -1.541865,-0.587269 -2.167315,0.01652 l -2.716849,2.624501 c -0.624721,0.604497 -0.667006,1.575863 -0.09445,2.169369 0.571745,0.593042 1.540901,0.58492 2.165663,-0.01817 z m -5.433715,5.248989 c 0.62571,-0.603521 0.669457,-1.575002 0.09784,-2.169456 -0.572098,-0.595234 -1.543818,-0.587115 -2.169049,0.01826 l -0.324805,0.315046 c -0.62571,0.603521 -0.669458,1.575003 -0.09784,2.169457 0.571338,0.594729 1.541865,0.587268 2.167313,-0.01652 z" />
   <path
      d="m 36.0532,39.288629 c 0.624046,0.603837 0.66706,1.573916 0.0961,2.167721 -0.571339,0.594729 -1.541865,0.587268 -2.167315,-0.01652 l -2.716849,-2.624502 c -0.624721,-0.604498 -0.667006,-1.575863 -0.09445,-2.16937 0.571745,-0.593041 1.540901,-0.584919 2.165663,0.01817 z M 30.619485,34.03964 c 0.62571,0.603521 0.669457,1.575002 0.09784,2.169456 -0.572098,0.595234 -1.543818,0.587115 -2.169049,-0.01826 L 28.223471,35.87579 c -0.62571,-0.603521 -0.669458,-1.575003 -0.09784,-2.169457 0.571338,-0.594729 1.541865,-0.587268 2.167313,0.01652 z" />
   <path
      d="m 41.556084,13.805691 c -1.699577,0 -3.067872,1.297986 -3.067872,2.910233 v 10.613793 c 0,1.612246 1.368295,2.910234 3.067872,2.910234 h 15.588095 c 1.699576,0 3.067872,-1.297988 3.067872,-2.910234 V 16.715924 c 0,-1.612247 -1.368296,-2.910233 -3.067872,-2.910233 z m 0.430783,1.93731 h 14.849308 c 0.685543,0 1.237838,0.523915 1.237838,1.174234 v 10.173017 c 0,0.650318 -0.552295,1.174234 -1.237838,1.174234 H 41.986867 c -0.685543,0 -1.237311,-0.523916 -1.237311,-1.174234 V 16.917235 c 0,-0.650319 0.551768,-1.174234 1.237311,-1.174234 z m 7.092306,5.251673 a 1.0838369,1.0281454 0 0 0 -1.083836,1.028146 1.0838369,1.0281454 0 0 0 1.083836,1.028146 h 5.419185 a 1.0838369,1.0281454 0 0 0 1.083836,-1.028146 1.0838369,1.0281454 0 0 0 -1.083836,-1.028146 z m 0,1.028146 h 5.419185 m -8.128778,0 a 1.6257554,1.5422181 0 0 1 -1.625755,1.542218 1.6257554,1.5422181 0 0 1 -1.625755,-1.542218 1.6257554,1.5422181 0 0 1 1.625755,-1.542218 1.6257554,1.5422181 0 0 1 1.625755,1.542218 z" />
   <path
      d="m 41.302368,50.194309 c -1.699577,0 -3.067872,-1.297986 -3.067872,-2.910233 V 36.670283 c 0,-1.612246 1.368295,-2.910234 3.067872,-2.910234 h 15.588095 c 1.699576,0 3.067872,1.297988 3.067872,2.910234 v 10.613793 c 0,1.612247 -1.368296,2.910233 -3.067872,2.910233 z m 0.430783,-1.93731 h 14.849308 c 0.685543,0 1.237838,-0.523915 1.237838,-1.174234 V 36.909748 c 0,-0.650318 -0.552295,-1.174234 -1.237838,-1.174234 H 41.733151 c -0.685543,0 -1.237311,0.523916 -1.237311,1.174234 v 10.173017 c 0,0.650319 0.551768,1.174234 1.237311,1.174234 z m 7.092306,-5.251673 a 1.0838369,1.0281454 0 0 1 -1.083836,-1.028146 1.0838369,1.0281454 0 0 1 1.083836,-1.028146 h 5.419185 a 1.0838369,1.0281454 0 0 1 1.083836,1.028146 1.0838369,1.0281454 0 0 1 -1.083836,1.028146 z m 0,-1.028146 h 5.419185 m -8.128778,0 a 1.6257554,1.5422181 0 0 0 -1.625755,-1.542218 1.6257554,1.5422181 0 0 0 -1.625755,1.542218 1.6257554,1.5422181 0 0 0 1.625755,1.542218 1.6257554,1.5422181 0 0 0 1.625755,-1.542218 z" />
</svg>