<svg width="24" height="24" viewBox="0 0 24 24" fill="none" xmlns="http://www.w3.org/2000/svg">
  <path
    d="M6.79932 18.3247V6.2328C6.79932 5.75894 6.91921 5.40783 7.15899 5.17946C7.39878 4.9511 7.68423 4.83691 8.01536 4.83691C8.31224 4.83691 8.60911 4.9197 8.90599 5.08526L19.0197 10.9942C19.3851 11.2055 19.6477 11.4053 19.8076 11.5937C19.9731 11.7821 20.0559 12.0104 20.0559 12.2788C20.0559 12.5414 19.9731 12.7698 19.8076 12.9639C19.6477 13.1523 19.3851 13.3521 19.0197 13.5633L8.90599 19.4723C8.60911 19.6378 8.31224 19.7206 8.01536 19.7206C7.68423 19.7206 7.39878 19.6036 7.15899 19.3695C6.91921 19.1412 6.79932 18.7929 6.79932 18.3247ZM8.48637 17.4512C8.48637 17.5312 8.51491 17.5883 8.572 17.6225C8.6348 17.6568 8.70331 17.6511 8.77753 17.6054L17.6581 12.4329C17.7266 12.393 17.7609 12.3416 17.7609 12.2788C17.7609 12.2046 17.7266 12.1532 17.6581 12.1246L8.77753 6.95215C8.70331 6.90648 8.6348 6.90077 8.572 6.93502C8.51491 6.96928 8.48637 7.02637 8.48637 7.10629V17.4512Z"
    fill="currentColor" />
</svg>