<svg width="24" height="24" viewBox="0 0 24 24" fill="none" xmlns="http://www.w3.org/2000/svg">
  <path
    d="M11.7812 21.3672C11.4167 21.3672 11.1536 21.237 10.9922 20.9766C10.8307 20.7161 10.6927 20.3906 10.5781 20L9.33594 15.875C9.26302 15.6146 9.23698 15.4062 9.25781 15.25C9.27865 15.0885 9.36458 14.9271 9.51562 14.7656L17.4922 6.16406C17.5391 6.11719 17.5625 6.0651 17.5625 6.00781C17.5625 5.95052 17.5417 5.90365 17.5 5.86719C17.4583 5.83073 17.4089 5.8125 17.3516 5.8125C17.2995 5.80729 17.25 5.82812 17.2031 5.875L8.63281 13.8828C8.46094 14.0391 8.29427 14.1276 8.13281 14.1484C7.97135 14.1641 7.76562 14.1328 7.51562 14.0547L3.29688 12.7734C2.92188 12.6589 2.61198 12.5234 2.36719 12.3672C2.1224 12.2057 2 11.9453 2 11.5859C2 11.3047 2.11198 11.0625 2.33594 10.8594C2.5599 10.6562 2.83594 10.4922 3.16406 10.3672L16.6016 5.21875C16.7839 5.15104 16.9531 5.09896 17.1094 5.0625C17.2708 5.02083 17.4167 5 17.5469 5C17.8021 5 18.0026 5.07292 18.1484 5.21875C18.2943 5.36458 18.3672 5.5651 18.3672 5.82031C18.3672 5.95573 18.3464 6.10156 18.3047 6.25781C18.2682 6.41406 18.2161 6.58333 18.1484 6.76562L13.0312 20.1328C12.8854 20.5078 12.7109 20.8073 12.5078 21.0312C12.3047 21.2552 12.0625 21.3672 11.7812 21.3672Z"
    fill="currentColor" />
  <path
    d="M11.7812 21.3672C11.4167 21.3672 11.1536 21.237 10.9922 20.9766C10.8307 20.7161 10.6927 20.3906 10.5781 20L9.33594 15.875C9.26302 15.6146 9.23698 15.4062 9.25781 15.25C9.27865 15.0885 9.36458 14.9271 9.51562 14.7656L17.4922 6.16406C17.5391 6.11719 17.5625 6.0651 17.5625 6.00781C17.5625 5.95052 17.5417 5.90365 17.5 5.86719C17.4583 5.83073 17.4089 5.8125 17.3516 5.8125C17.2995 5.80729 17.25 5.82812 17.2031 5.875L8.63281 13.8828C8.46094 14.0391 8.29427 14.1276 8.13281 14.1484C7.97135 14.1641 7.76562 14.1328 7.51562 14.0547L3.29688 12.7734C2.92188 12.6589 2.61198 12.5234 2.36719 12.3672C2.1224 12.2057 2 11.9453 2 11.5859C2 11.3047 2.11198 11.0625 2.33594 10.8594C2.5599 10.6562 2.83594 10.4922 3.16406 10.3672L16.6016 5.21875C16.7839 5.15104 16.9531 5.09896 17.1094 5.0625C17.2708 5.02083 17.4167 5 17.5469 5C17.8021 5 18.0026 5.07292 18.1484 5.21875C18.2943 5.36458 18.3672 5.5651 18.3672 5.82031C18.3672 5.95573 18.3464 6.10156 18.3047 6.25781C18.2682 6.41406 18.2161 6.58333 18.1484 6.76562L13.0312 20.1328C12.8854 20.5078 12.7109 20.8073 12.5078 21.0312C12.3047 21.2552 12.0625 21.3672 11.7812 21.3672Z"
    fill="currentColor" />
</svg>