<svg width="24" height="25" viewBox="0 0 24 25" fill="none" xmlns="http://www.w3.org/2000/svg">
  <path
    d="M16.1479 14.9733C16.4441 14.9733 16.7353 14.958 17.0213 14.9274C17.3125 14.8916 17.5858 14.8456 17.8412 14.7894C18.1018 14.7281 18.329 14.6541 18.5231 14.5672C18.6356 14.5213 18.7301 14.4906 18.8066 14.4753C18.8884 14.46 18.9676 14.4523 19.0442 14.4523C19.1975 14.4523 19.3354 14.5085 19.4579 14.6209C19.5857 14.7332 19.6495 14.8865 19.6495 15.0806C19.6495 15.1368 19.6393 15.2134 19.6189 15.3105C19.6036 15.4075 19.5704 15.5148 19.5193 15.6322C19.1005 16.5927 18.5282 17.4202 17.803 18.1149C17.0827 18.8146 16.2449 19.351 15.2897 19.7239C14.3345 20.1019 13.3052 20.2909 12.2018 20.2909C11.032 20.2909 9.95676 20.0892 8.976 19.6857C7.99523 19.2871 7.14216 18.7278 6.41681 18.0076C5.69655 17.2822 5.1372 16.4292 4.73877 15.4484C4.34033 14.4676 4.14111 13.3923 4.14111 12.2226C4.14111 11.1448 4.34799 10.1155 4.76175 9.13469C5.17551 8.14881 5.74763 7.28298 6.4781 6.53718C7.21368 5.78628 8.05908 5.21672 9.01431 4.8285C9.13691 4.77743 9.23907 4.74422 9.32079 4.72889C9.40764 4.70846 9.47405 4.69824 9.52002 4.69824C9.71924 4.69824 9.88014 4.7672 10.0027 4.90512C10.1253 5.04305 10.1866 5.19374 10.1866 5.35719C10.1866 5.44914 10.1739 5.53854 10.1483 5.62538C10.1279 5.70711 10.0845 5.80928 10.0181 5.93187C9.87503 6.20771 9.7601 6.58061 9.67326 7.05056C9.59153 7.52051 9.55067 8.03643 9.55067 8.59833C9.55067 9.91113 9.81884 11.0451 10.3552 12.0004C10.8916 12.9505 11.6527 13.6835 12.6386 14.1994C13.6244 14.7154 14.7942 14.9733 16.1479 14.9733ZM5.61993 12.1766C5.61993 13.1421 5.78339 14.0283 6.11031 14.8354C6.43724 15.6426 6.89697 16.3449 7.48952 16.9425C8.08718 17.5351 8.78955 17.9949 9.59664 18.3217C10.4037 18.6538 11.2849 18.8197 12.2401 18.8197C12.9859 18.8197 13.7011 18.7099 14.3856 18.4903C15.0752 18.2707 15.6983 17.9539 16.2551 17.5402C16.817 17.1264 17.2844 16.6335 17.6573 16.0614C17.3917 16.1584 17.1133 16.2274 16.8221 16.2682C16.5361 16.3092 16.2271 16.3296 15.895 16.3296C14.2859 16.3296 12.9042 16.0282 11.7497 15.4254C10.6004 14.8175 9.71669 13.9491 9.0986 12.8202C8.48561 11.6913 8.17913 10.3402 8.17913 8.7669C8.17913 8.3889 8.20466 8.02877 8.25575 7.68653C8.31194 7.33917 8.39111 7.0097 8.49327 6.69809C7.90073 7.09653 7.3899 7.58436 6.96083 8.16158C6.53174 8.73881 6.1997 9.37223 5.96472 10.0618C5.73486 10.7514 5.61993 11.4564 5.61993 12.1766Z"
    fill="currentColor" />
</svg>