<svg width="24" height="24" viewBox="0 0 24 24" fill="none" xmlns="http://www.w3.org/2000/svg">
  <path
    d="M10.43 17.781a.576.576 0 0 1-.414-.148.577.577 0 0 1-.164-.406l-.235-8.063a.5.5 0 0 1 .149-.398.56.56 0 0 1 .414-.157.56.56 0 0 1 .414.157c.11.099.166.229.172.39L11 17.22a.55.55 0 0 1-.156.406.56.56 0 0 1-.414.156zm3.14-.11a.57.57 0 0 1-.422-.155.525.525 0 0 1-.148-.407l.234-8.054c.006-.167.06-.3.164-.399a.56.56 0 0 1 .415-.156c.177 0 .315.052.414.156a.5.5 0 0 1 .148.399l-.227 8.062a.561.561 0 0 1-.171.406.566.566 0 0 1-.407.149zM8.36 6.329V4.672c0-.615.187-1.094.562-1.438.38-.343.909-.515 1.586-.515h2.976c.678 0 1.204.172 1.579.515.38.344.57.823.57 1.438v1.656h-1.594V4.742a.552.552 0 0 0-.187-.437c-.12-.115-.282-.172-.485-.172h-2.742a.7.7 0 0 0-.492.172.564.564 0 0 0-.18.437v1.586H8.36zM4.968 7.352a.759.759 0 0 1-.547-.22.729.729 0 0 1-.227-.546.72.72 0 0 1 .227-.54.759.759 0 0 1 .547-.218h14.07c.214 0 .393.073.54.219.15.14.226.32.226.539a.742.742 0 0 1-.22.547.742.742 0 0 1-.546.219H4.97zm3.437 13.171c-.63 0-1.133-.174-1.508-.523-.375-.349-.575-.838-.601-1.469L5.766 7.195h1.57l.523 11.024c.01.229.081.414.211.554.136.141.31.211.524.211h6.804c.22 0 .394-.07.524-.21.135-.136.208-.32.219-.555l.507-11.024h1.594l-.531 11.328c-.026.636-.23 1.128-.61 1.477-.374.349-.874.523-1.5.523H8.407z"
    fill="currentColor" />
</svg>