<svg
  width="24"
  height="24"
  viewBox="0 0 24 24"
  fill="none"
  xmlns="http://www.w3.org/2000/svg">
  <path
    d="M 7.1576421,16.842346 C 7.0128266,16.697531 6.9404471,16.523413 6.9405037,16.319992 6.9404401,16.108631 7.010882,15.932547 7.1517448,15.791685 L 10.949318,11.994111 7.1576138,8.2024065 C 7.016751,8.0615437 6.9463585,7.8893279 6.9463727,7.6858367 6.9423987,7.4784988 7.0128266,7.3024292 7.1576421,7.1576138 7.3024575,7.0127983 7.4785271,6.9423705 7.685865,6.9463444 c 0.2074509,-0.00397 0.381576,0.064509 0.5224387,0.2053721 l 3.7917043,3.7917045 3.791719,-3.7917186 c 0.140856,-0.1408557 0.314945,-0.2093037 0.52241,-0.2053439 0.207324,-0.00396 0.383394,0.066468 0.528209,0.2112836 0.144816,0.1448154 0.215244,0.320885 0.211284,0.5282087 0,0.2035053 -0.07036,0.3756859 -0.211213,0.5165415 l -3.791719,3.7917187 3.797588,3.797588 c 0.140856,0.140855 0.209304,0.314945 0.205344,0.52241 0.004,0.207324 -0.06647,0.383393 -0.211284,0.528209 -0.144815,0.144815 -0.320885,0.215243 -0.528209,0.211283 -0.203505,0 -0.375685,-0.07036 -0.516541,-0.211212 l -3.797588,-3.797588 -3.7975733,3.797574 c -0.1408627,0.140862 -0.3150372,0.213213 -0.5224387,0.21711 -0.2034205,5.6e-5 -0.3775385,-0.07232 -0.5223539,-0.217139 z"
    fill="#000000" />
</svg>