<svg width="25" height="24" viewBox="0 0 25 24" fill="none" xmlns="http://www.w3.org/2000/svg">
  <path
    d="M6.555 14.008c-.308 0-.586-.073-.836-.219a1.75 1.75 0 0 1-.602-.601 1.613 1.613 0 0 1-.219-.829c0-.307.073-.586.22-.836.15-.25.35-.447.6-.593.25-.151.53-.227.837-.227.302 0 .578.076.828.227.25.146.448.343.594.593.15.25.226.53.226.836 0 .303-.075.579-.226.829a1.614 1.614 0 0 1-1.422.82zm5.86 0c-.303 0-.58-.073-.83-.219a1.75 1.75 0 0 1-.6-.601 1.613 1.613 0 0 1-.22-.829c0-.307.073-.586.22-.836.15-.25.35-.447.6-.593a1.57 1.57 0 0 1 .83-.227c.301 0 .577.076.827.227.255.146.456.343.602.593.15.25.226.53.226.836 0 .303-.075.579-.226.829-.146.25-.347.45-.602.601-.25.146-.526.219-.828.219zm5.866 0c-.307 0-.586-.073-.836-.219a1.75 1.75 0 0 1-.601-.601 1.613 1.613 0 0 1-.219-.829c0-.307.073-.586.219-.836.15-.25.351-.447.601-.593.25-.151.529-.227.836-.227.302 0 .578.076.828.227.25.146.45.343.602.593.151.25.227.53.227.836 0 .303-.076.579-.227.829a1.75 1.75 0 0 1-.602.601c-.25.146-.526.219-.828.219z"
    fill="currentColor" />
</svg>