<svg width="20" height="20" viewBox="0 0 20 20" fill="currentColor"
  xmlns="http://www.w3.org/2000/svg">
  <path fill-rule="evenodd" clip-rule="evenodd"
    d="M10.553 2.695a.64.64 0 0 0-.469-.195.633.633 0 0 0-.475.195.625.625 0 0 0-.195.456v6.478l.052.957-.326-.436-.865-.931a.58.58 0 0 0-.443-.189.598.598 0 0 0-.41.156.515.515 0 0 0-.176.404c0 .156.06.297.182.423l2.136 2.05a.709.709 0 0 0 .26.177.665.665 0 0 0 .514 0 .788.788 0 0 0 .26-.176l2.136-2.051a.595.595 0 0 0 .182-.423c0-.165-.056-.3-.169-.404a.598.598 0 0 0-.41-.156.6.6 0 0 0-.45.189l-.872.93-.325.437.059-.957V3.15a.625.625 0 0 0-.196-.456zM4.726 16.257c.378.373.927.56 1.648.56h7.513c.72 0 1.267-.187 1.64-.56.378-.374.567-.916.567-1.628V8.288c0-.716-.19-1.259-.567-1.628-.373-.373-.92-.56-1.64-.56h-1.862v1.446h1.738c.282 0 .499.073.65.22.153.144.229.366.229.665v6.048c0 .3-.076.521-.228.664-.152.148-.369.222-.651.222H6.49c-.287 0-.506-.074-.658-.222-.147-.143-.221-.364-.221-.664V8.431c0-.3.074-.52.221-.664.152-.148.371-.221.658-.221h1.738V6.1H6.374c-.72 0-1.27.187-1.648.56-.373.37-.56.912-.56 1.628v6.34c0 .713.187 1.255.56 1.628z"
    fill="currentColor" />
</svg>