<svg width="24" height="24" viewBox="0 0 24 24" fill="none" xmlns="http://www.w3.org/2000/svg">
  <path
    d="M6.084 20c-.433 0-.804-.095-1.115-.284-.31-.19-.55-.448-.717-.774A2.298 2.298 0 0 1 4 17.86c0-.384.1-.752.298-1.105L10.22 6.082a1.96 1.96 0 0 1 .771-.806C11.313 5.092 11.65 5 12 5s.684.092 1 .276c.32.18.58.448.779.806l5.923 10.673c.097.174.17.355.222.545a2.298 2.298 0 0 1-.176 1.642 1.916 1.916 0 0 1-.718.774c-.31.19-.681.284-1.114.284H6.084zm5.924-5.282c.397 0 .598-.215.603-.647l.114-4.295a.658.658 0 0 0-.206-.513A.692.692 0 0 0 12 9.05a.715.715 0 0 0-.527.205.683.683 0 0 0-.19.513l.099 4.303c.01.432.219.647.626.647zm0 2.645a.826.826 0 0 0 .595-.245.793.793 0 0 0 .26-.6.793.793 0 0 0-.26-.6.813.813 0 0 0-.595-.252.821.821 0 0 0-.603.252.82.82 0 0 0-.252.6c0 .237.084.437.252.6a.852.852 0 0 0 .603.245z"
    fill="currentColor" />
</svg>