<svg
    viewBox="0 0 24 24"
    fill="none"
    version="1.1"
    id="svg1"
    xmlns="http://www.w3.org/2000/svg"
    xmlns:svg="http://www.w3.org/2000/svg">
    <path
        fill="currentColor"
        d="m 3,2.25 a 0.75,0.75 0 0 0 -0.53125,0.21875 0.75,0.75 0 0 0 0,1.0625 l 18,18 a 0.75,0.75 0 0 0 1.0625,0 0.75,0.75 0 0 0 0,-1.0625 l -18,-18 A 0.75,0.75 0 0 0 3,2.25 Z m 9,2 c -0.370699,0 -0.734042,0.02108 -1.087891,0.0625 -0.372135,0.043564 -0.733865,0.1094654 -1.0859371,0.1933594 A 0.75,0.75 0 0 0 9.2695313,5.4101562 0.75,0.75 0 0 0 10.173828,5.9648437 C 10.470556,5.8941377 10.775626,5.83929 11.087891,5.8027344 11.384842,5.7679745 11.688299,5.75 12,5.75 c 5.519095,0 8.746379,5.65946 9.082031,6.261719 -0.149,0.272042 -0.564523,1.085755 -1.648437,2.330078 a 0.75,0.75 0 0 0 0.07422,1.056641 0.75,0.75 0 0 0 1.058594,-0.07227 c 1.366418,-1.568633 2.09961,-2.980469 2.09961,-2.980469 a 0.750075,0.750075 0 0 0 0,-0.691406 C 22.666016,11.654297 18.913603,4.25 12,4.25 Z m 0,4 A 0.75,0.75 0 0 0 11.25,9 0.75,0.75 0 0 0 12,9.75 c 0.264818,0 0.516006,0.044247 0.75,0.1269531 C 13.387645,10.102328 13.89765,10.612336 14.123047,11.25 14.205757,11.484134 14.25,11.735253 14.25,12 A 0.75,0.75 0 0 0 15,12.75 0.75,0.75 0 0 0 15.75,12 c 0,-0.436453 -0.0746,-0.858534 -0.212891,-1.25 C 15.159906,9.6828644 14.317155,8.8400755 13.25,8.4628906 12.858394,8.3244766 12.436382,8.25 12,8.25 Z m -7.8945313,0.00195 A 0.75,0.75 0 0 0 3.5878906,8.5 C 3.2657323,8.8600661 2.9766988,9.2119003 2.7226563,9.5429688 h 0.00195 C 1.8221237,10.719 1.3339844,11.654297 1.3339844,11.654297 a 0.750075,0.750075 0 0 0 0,0.691406 c 0,0 3.7523759,7.404297 10.6660156,7.404297 0.370655,0 0.733981,-0.02106 1.087891,-0.0625 a 0.75,0.75 0 0 0 0.65625,-0.832031 0.75,0.75 0 0 0 -0.832032,-0.658203 C 12.615219,18.232028 12.311745,18.25 12,18.25 6.4709663,18.25 3.2352034,12.56067 2.9101563,11.976563 3.0416824,11.738675 3.247073,11.326187 3.9140625,10.457031 4.14742,10.15292 4.4107565,9.8289539 4.7050781,9.5 A 0.75,0.75 0 0 0 4.6464844,8.4414063 0.75,0.75 0 0 0 4.1054687,8.2519531 Z M 8.9179688,11.759766 A 0.75,0.75 0 0 0 8.3027344,12.625 c 0.036111,0.215265 0.088994,0.423684 0.1601562,0.625 C 8.8400772,14.31716 9.6828662,15.159907 10.75,15.537109 11.141466,15.675399 11.563547,15.75 12,15.75 A 0.75,0.75 0 0 0 12.75,15 0.75,0.75 0 0 0 12,14.25 c -0.264747,0 -0.515866,-0.04424 -0.75,-0.126953 C 10.612334,13.897649 10.102327,13.38764 9.8769531,12.75 9.8344349,12.629716 9.8028791,12.503935 9.78125,12.375 A 0.75,0.75 0 0 0 8.9179688,11.759766 Z"
    />
</svg>