<svg
    viewBox="0 0 24 24"
    fill="none"
    version="1.1"
    id="svg2"
    xmlns="http://www.w3.org/2000/svg"
    xmlns:svg="http://www.w3.org/2000/svg">
    <path
        fill="currentColor"
        d="m 12,4.25 c -6.9136397,0 -10.6660156,7.404297 -10.6660156,7.404297 a 0.750075,0.750075 0 0 0 0,0.691406 c 0,0 3.7523759,7.404297 10.6660156,7.404297 6.913603,0 10.666016,-7.404297 10.666016,-7.404297 a 0.750075,0.750075 0 0 0 0,-0.691406 C 22.666016,11.654297 18.913603,4.25 12,4.25 Z m 0,1.5 c 5.509197,0 8.728011,5.629731 9.074219,6.25 C 20.728011,12.620269 17.509197,18.25 12,18.25 6.4907618,18.25 3.2719846,12.620269 2.9257813,12 3.2719846,11.379731 6.4907618,5.75 12,5.75 Z" />
    <path
        fill="currentColor"
        d="m 12,8.25 c -2.0622051,0 -3.75,1.6877949 -3.75,3.75 0,2.062205 1.6877949,3.75 3.75,3.75 2.062205,0 3.75,-1.687795 3.75,-3.75 0,-2.0622051 -1.687795,-3.75 -3.75,-3.75 z m 0,1.5 c 1.251595,0 2.25,0.998405 2.25,2.25 0,1.251595 -0.998405,2.25 -2.25,2.25 -1.251595,0 -2.25,-0.998405 -2.25,-2.25 0,-1.251595 0.998405,-2.25 2.25,-2.25 z" />
</svg>