<svg width="24" height="24" viewBox="0 0 24 24" fill="none" xmlns="http://www.w3.org/2000/svg">
  <path
    d="M4.41992 17.5781C4.41992 17.3021 4.49284 17.0391 4.63867 16.7891C4.78451 16.5339 4.9694 16.2891 5.19336 16.0547C5.42253 15.8203 5.6543 15.5885 5.88867 15.3594C6.07096 15.1823 6.21159 14.9505 6.31055 14.6641C6.41471 14.3776 6.49284 14.0625 6.54492 13.7188C6.59701 13.375 6.63867 13.0234 6.66992 12.6641C6.70117 11.6797 6.82357 10.8073 7.03711 10.0469C7.25586 9.28646 7.57878 8.64844 8.00586 8.13281C8.43815 7.61719 8.99544 7.23698 9.67773 6.99219C9.82357 6.47656 10.1022 6.04427 10.5137 5.69531C10.9251 5.34635 11.4199 5.17188 11.998 5.17188C12.5814 5.17188 13.0788 5.34635 13.4902 5.69531C13.9017 6.04427 14.1803 6.47656 14.3262 6.99219C15.0085 7.23698 15.5632 7.61719 15.9902 8.13281C16.4225 8.64844 16.7454 9.28646 16.959 10.0469C17.1777 10.8073 17.3027 11.6797 17.334 12.6641C17.3652 13.0234 17.4069 13.375 17.459 13.7188C17.5111 14.0625 17.5866 14.3776 17.6855 14.6641C17.7897 14.9505 17.9329 15.1823 18.1152 15.3594C18.3496 15.5885 18.5788 15.8203 18.8027 16.0547C19.0319 16.2891 19.2194 16.5339 19.3652 16.7891C19.5111 17.0391 19.584 17.3021 19.584 17.5781C19.584 17.9115 19.4668 18.1797 19.2324 18.3828C19.0033 18.5807 18.6855 18.6797 18.2793 18.6797H15.0605C15.0397 19.1849 14.8965 19.6536 14.6309 20.0859C14.3704 20.5234 14.0137 20.875 13.5605 21.1406C13.1126 21.4115 12.5918 21.5469 11.998 21.5469C11.4095 21.5469 10.8887 21.4115 10.4355 21.1406C9.98763 20.875 9.63086 20.5234 9.36523 20.0859C9.10482 19.6536 8.96419 19.1849 8.94336 18.6797H5.72461C5.31836 18.6797 4.99805 18.5807 4.76367 18.3828C4.53451 18.1797 4.41992 17.9115 4.41992 17.5781ZM6.28711 17.25H17.6934V17.1562C17.6257 17.0885 17.5371 16.9974 17.4277 16.8828C17.3184 16.7682 17.196 16.6432 17.0605 16.5078C16.9303 16.3672 16.8001 16.224 16.6699 16.0781C16.5345 15.9271 16.4173 15.7448 16.3184 15.5312C16.2194 15.3125 16.1361 15.0677 16.0684 14.7969C16.0007 14.5208 15.9434 14.2214 15.8965 13.8984C15.8548 13.5755 15.8236 13.2266 15.8027 12.8516C15.7715 11.7995 15.6517 10.9609 15.4434 10.3359C15.235 9.70573 14.959 9.23698 14.6152 8.92969C14.2767 8.61719 13.8965 8.40365 13.4746 8.28906C13.3861 8.26823 13.3132 8.23177 13.2559 8.17969C13.2038 8.1224 13.1751 8.04167 13.1699 7.9375C13.1491 7.54167 13.0345 7.22135 12.8262 6.97656C12.623 6.73177 12.347 6.60938 11.998 6.60938C11.6595 6.60938 11.3861 6.73177 11.1777 6.97656C10.9694 7.22135 10.8548 7.54167 10.834 7.9375C10.8288 8.04167 10.7975 8.1224 10.7402 8.17969C10.6882 8.23177 10.6152 8.26823 10.5215 8.28906C10.0996 8.40365 9.7194 8.61719 9.38086 8.92969C9.04232 9.23698 8.76888 9.70573 8.56055 10.3359C8.35221 10.9609 8.23242 11.7995 8.20117 12.8516C8.18034 13.2266 8.14648 13.5755 8.09961 13.8984C8.05794 14.2214 8.00065 14.5208 7.92773 14.7969C7.86003 15.0677 7.77669 15.3125 7.67773 15.5312C7.57878 15.7448 7.46159 15.9271 7.32617 16.0781C7.20117 16.224 7.07096 16.3672 6.93555 16.5078C6.80013 16.6432 6.67513 16.7682 6.56055 16.8828C6.44596 16.9974 6.35482 17.0885 6.28711 17.1562V17.25ZM10.4199 18.6797C10.446 19.1745 10.6048 19.5677 10.8965 19.8594C11.1934 20.151 11.5605 20.2969 11.998 20.2969C12.446 20.2969 12.8132 20.151 13.0996 19.8594C13.3913 19.5677 13.5527 19.1745 13.584 18.6797H10.4199Z"
    fill="currentColor" />
</svg>