<svg width="25" height="24" viewBox="0 0 25 24" fill="none" xmlns="http://www.w3.org/2000/svg">
  <path
    d="M7.14 18.727c-.864 0-1.523-.224-1.976-.672-.448-.443-.672-1.091-.672-1.946V6.617c0-.854.224-1.505.672-1.953.453-.448 1.112-.672 1.977-.672h9.437c.865 0 1.521.224 1.969.672.453.448.68 1.099.68 1.953v9.492c0 .854-.227 1.503-.68 1.946-.448.448-1.104.672-1.969.672H7.141zm.141-1.735h9.157c.338 0 .599-.086.78-.258.183-.177.274-.445.274-.804V6.805c0-.36-.091-.628-.273-.805-.183-.177-.443-.266-.782-.266H7.281c-.343 0-.607.089-.789.266-.177.177-.265.445-.265.805v9.125c0 .36.088.627.265.804.182.172.446.258.79.258zm5.79-7.805c.182-.156.361-.229.538-.218.183.005.331.067.446.187.114.12.174.268.18.446.005.177-.07.354-.227.53l-1.297 1.446-2.625 2.625a.798.798 0 0 1-.586.242.735.735 0 0 1-.758-.766.78.78 0 0 1 .242-.554l2.641-2.633 1.445-1.305zm.53 2.344.266-2.226-2.14.304h-1.243c-.229 0-.414-.062-.554-.187a.645.645 0 0 1-.211-.508c0-.213.067-.383.203-.508.14-.125.328-.187.562-.187h3.618c.27 0 .484.073.64.219.162.145.242.367.242.664v3.593c0 .23-.062.414-.187.555a.636.636 0 0 1-.5.21.657.657 0 0 1-.508-.202c-.125-.14-.187-.326-.187-.555v-1.172z"
    fill="currentColor" />
</svg>