<svg width="24" height="24" viewBox="0 0 24 24" fill="none" xmlns="http://www.w3.org/2000/svg">
  <path fill-rule="evenodd" clip-rule="evenodd"
    d="M6.16222 5.6H17.8377C18.4403 5.6 18.9753 5.9856 19.1658 6.55728L20.125 9.43468C20.2301 9.74999 19.9182 10.044 19.6096 9.92061C18.6026 9.5178 17.4854 9.48497 16.4565 9.82795L15.4427 10.1659C15.1553 10.2617 14.8446 10.2617 14.5572 10.1659L13.4546 9.79833C12.5104 9.48359 11.4895 9.48359 10.5453 9.79833L9.44266 10.1659C9.15529 10.2617 8.8446 10.2617 8.55723 10.1659L7.54344 9.82795C6.5145 9.48497 5.39731 9.5178 4.39029 9.92061C4.08169 10.044 3.76983 9.74999 3.87494 9.43468L4.83407 6.55728C5.02463 5.9856 5.55962 5.6 6.16222 5.6ZM3.31617 6.05131C3.72452 4.82629 4.87093 4 6.16222 4H17.8377C19.129 4 20.2754 4.82629 20.6837 6.05132L21.6429 8.92871C22.0886 10.266 21.0633 11.5283 19.8002 11.5527V17C19.8002 18.5464 18.5466 19.8 17.0002 19.8H7.0002C5.4538 19.8 4.2002 18.5464 4.2002 17V11.5527C2.93688 11.5286 1.91122 10.2662 2.35704 8.92871L3.31617 6.05131ZM5.8002 11.2071V17C5.8002 17.6627 6.33745 18.2 7.0002 18.2H17.0002C17.6629 18.2 18.2002 17.6627 18.2002 17V11.2071C17.7855 11.1661 17.3637 11.2121 16.9624 11.3458L15.9486 11.6838C15.3328 11.889 14.6671 11.889 14.0513 11.6838L12.9486 11.3162C12.3328 11.111 11.6671 11.111 11.0513 11.3162L9.94863 11.6838C9.33283 11.889 8.66706 11.889 8.05126 11.6838L7.03747 11.3458C6.6364 11.2122 6.21474 11.1662 5.8002 11.2071Z"
    fill="currentColor" />
</svg>