<svg width="24" height="25" viewBox="0 0 24 25" fill="none" xmlns="http://www.w3.org/2000/svg">
  <path
    d="M4.72266 18.0033V7.01596C4.72266 6.44896 4.88356 6.00711 5.20539 5.6904C5.53231 5.37369 5.98438 5.21533 6.5616 5.21533H17.4646C18.0418 5.21533 18.4913 5.37369 18.8131 5.6904C19.1401 6.00711 19.3034 6.44896 19.3034 7.01596V18.0033C19.3034 18.5601 19.1401 18.9967 18.8131 19.3135C18.4913 19.6353 18.0418 19.7962 17.4646 19.7962H6.5616C5.98438 19.7962 5.53231 19.6353 5.20539 19.3135C4.88356 18.9967 4.72266 18.5601 4.72266 18.0033ZM6.23212 17.5665C6.23212 17.8014 6.29598 17.9853 6.42369 18.1182C6.55138 18.2458 6.72762 18.3097 6.95238 18.3097H17.0968C17.3266 18.3097 17.5028 18.2458 17.6254 18.1182C17.7532 17.9853 17.8169 17.8014 17.8169 17.5665V7.44505C17.8169 7.21518 17.7532 7.03639 17.6254 6.9087C17.5028 6.77589 17.3266 6.70947 17.0968 6.70947H6.95238C6.72762 6.70947 6.55138 6.77589 6.42369 6.9087C6.29598 7.03639 6.23212 7.21518 6.23212 7.44505V17.5665Z"
    fill="currentColor" />
</svg>