<svg width="24" height="24" viewBox="0 0 24 24" fill="none" xmlns="http://www.w3.org/2000/svg">
  <path
    d="M5.853 10.903c-.626 0-1.092-.15-1.4-.453C4.151 10.143 4 9.668 4 9.027v-3.15c0-.636.151-1.108.453-1.416.308-.307.774-.461 1.4-.461h3.205c.62 0 1.082.154 1.384.461.308.308.461.78.461 1.416v3.15c0 .641-.153 1.116-.46 1.423-.303.302-.764.454-1.385.454H5.853zm.008-1.447h3.181c.138 0 .242-.034.31-.103.07-.07.104-.178.104-.326V5.869c0-.143-.034-.25-.103-.318-.07-.069-.173-.103-.31-.103H5.86c-.138 0-.241.034-.31.103-.069.069-.103.175-.103.318v3.158c0 .148.034.257.103.326.069.069.172.103.31.103zm8.089 1.447c-.626 0-1.093-.15-1.4-.453-.302-.307-.454-.782-.454-1.423v-3.15c0-.636.152-1.108.454-1.416.307-.307.774-.461 1.4-.461h3.197c.626 0 1.09.154 1.392.461.307.308.461.78.461 1.416v3.15c0 .641-.154 1.116-.461 1.423-.303.302-.767.454-1.392.454H13.95zm.008-1.447h3.18c.144 0 .247-.034.311-.103.069-.07.103-.178.103-.326V5.869c0-.143-.034-.25-.103-.318-.064-.069-.167-.103-.31-.103h-3.181c-.144 0-.25.034-.319.103-.063.069-.095.175-.095.318v3.158c0 .148.032.257.095.326.07.069.175.103.319.103zM5.853 19c-.626 0-1.092-.154-1.4-.461-.302-.308-.453-.78-.453-1.416v-3.15c0-.641.151-1.113.453-1.415.308-.308.774-.461 1.4-.461h3.205c.62 0 1.082.153 1.384.46.308.303.461.775.461 1.416v3.15c0 .636-.153 1.108-.46 1.416-.303.307-.764.461-1.385.461H5.853zm.008-1.448h3.181c.138 0 .242-.034.31-.103.07-.069.104-.175.104-.318v-3.165c0-.144-.034-.25-.103-.319-.07-.069-.173-.103-.31-.103H5.86c-.138 0-.241.034-.31.103-.069.07-.103.175-.103.319v3.165c0 .143.034.25.103.318.069.069.172.103.31.103zM13.95 19c-.626 0-1.093-.154-1.4-.461-.302-.308-.454-.78-.454-1.416v-3.15c0-.641.152-1.113.454-1.415.307-.308.774-.461 1.4-.461h3.197c.626 0 1.09.153 1.392.46.307.303.461.775.461 1.416v3.15c0 .636-.154 1.108-.461 1.416-.303.307-.767.461-1.392.461H13.95zm.008-1.448h3.18c.144 0 .247-.034.311-.103.069-.069.103-.175.103-.318v-3.165c0-.144-.034-.25-.103-.319-.064-.069-.167-.103-.31-.103h-3.181c-.144 0-.25.034-.319.103-.063.07-.095.175-.095.319v3.165c0 .143.032.25.095.318.07.069.175.103.319.103z"
    fill="currentColor" />
</svg>